<svg width="24" height="24" viewBox="0 0 24 24" fill="none" xmlns="http://www.w3.org/2000/svg">
<path d="M18.0421 7.43918C18.3233 7.72047 18.4812 8.10193 18.4812 8.49968C18.4812 8.89743 18.3233 9.27889 18.0421 9.56018L10.5421 17.0602C10.2608 17.3414 9.87931 17.4994 9.48157 17.4994C9.08382 17.4994 8.70236 17.3414 8.42107 17.0602L5.42107 14.0602C5.14783 13.7773 4.99664 13.3984 5.00006 13.0051C5.00347 12.6118 5.16123 12.2356 5.43934 11.9575C5.71745 11.6793 6.09367 11.5216 6.48697 11.5182C6.88026 11.5148 7.25916 11.6659 7.54207 11.9392L9.48157 13.8787L15.9211 7.43918C16.2024 7.15797 16.5838 7 16.9816 7C17.3793 7 17.7608 7.15797 18.0421 7.43918Z" fill="black"/>
</svg>
